<?xml version="1.0" standalone="no"?>
<!DOCTYPE svg PUBLIC "-//W3C//DTD SVG 20010904//EN"
 "http://www.w3.org/TR/2001/REC-SVG-20010904/DTD/svg10.dtd">
<svg version="1.0" xmlns="http://www.w3.org/2000/svg"
 width="260.000000pt" height="260.000000pt" viewBox="0 0 260.000000 260.000000"
 preserveAspectRatio="xMidYMid meet">
<metadata>
Created by potrace 1.11, written by Peter Selinger 2001-2013
</metadata>
<g transform="translate(0.000000,260.000000) scale(0.100000,-0.100000)"
fill="#000000" stroke="none">
<path d="M783 2504 c-63 -22 -78 -61 -46 -112 10 -15 20 -29 24 -32 8 -6 99
-147 99 -153 0 -3 -128 -5 -285 -5 -156 0 -293 -3 -303 -7 -27 -8 -46 -57 -38
-100 13 -67 1 -65 501 -65 l451 0 0 -102 -1 -103 -390 -2 -390 -3 -23 -26
c-30 -34 -26 -99 8 -126 21 -17 50 -18 409 -18 l386 0 1 -115 c0 -96 -3 -115
-16 -116 -8 0 -234 -1 -501 -2 -375 -2 -489 -5 -501 -15 -35 -29 -27 -131 12
-152 12 -6 422 -10 1122 -10 1097 0 1104 0 1126 20 20 19 28 56 22 100 -1 8
-10 24 -21 35 -19 19 -34 20 -527 22 -279 1 -512 2 -519 2 -9 1 -12 34 -12
116 l0 115 407 0 c452 1 440 -1 452 67 7 43 -9 87 -36 97 -9 4 -198 6 -419 6
l-402 0 -2 105 -2 105 463 0 c255 0 473 3 484 6 44 12 60 108 24 144 -13 13
-34 20 -57 21 -21 0 -156 0 -301 0 l-263 0 18 29 c98 156 116 188 116 213 0
38 -33 68 -80 74 -69 8 -85 -6 -158 -134 -37 -65 -78 -132 -91 -150 l-24 -31
-212 1 -213 2 -15 30 c-35 69 -102 176 -139 222 -45 57 -77 68 -138 47z"/>
<path d="M1215 1180 c-33 -12 -45 -34 -51 -96 -4 -32 -8 -66 -10 -74 -1 -8 -3
-23 -3 -32 -1 -17 -30 -18 -469 -18 -434 0 -470 -1 -485 -17 -37 -42 -28 -130
16 -150 13 -6 183 -10 440 -10 229 0 420 -3 423 -6 10 -9 -56 -98 -113 -153
-140 -137 -388 -255 -673 -319 -120 -27 -150 -50 -150 -111 0 -62 29 -100 86
-110 26 -4 303 68 329 86 6 4 23 10 38 14 42 10 250 110 303 145 25 17 49 31
55 31 5 0 9 4 9 9 0 5 9 12 19 16 10 3 57 43 103 88 79 77 144 160 182 235
l17 32 59 -77 c145 -191 307 -321 533 -428 164 -77 446 -163 502 -152 57 11
99 69 89 123 -9 53 -40 72 -174 104 -173 42 -256 72 -395 140 -167 81 -326
203 -397 302 -18 27 -18 28 -1 29 10 0 211 1 447 1 l430 1 23 23 c31 31 32
105 3 134 -19 19 -33 20 -536 20 l-515 0 6 79 c4 51 2 87 -5 100 -21 40 -86
59 -135 41z"/>
</g>
</svg>
